[x11grab @ 0x55b9f6d83000] Stream #0: not enough frames to estimate rate; consider increasing probesize
Input #0, x11grab, from ':99.0+0,0':
  Duration: N/A, start: 1783863155.259708, bitrate: 983520 kb/s
  Stream #0:0: Video: rawvideo (BGR[0] / 0x524742), bgr0, 1366x900, 983520 kb/s, 25 fps, 1000k tbr, 1000k tbn
Stream mapping:
  Stream #0:0 -> #0:0 (rawvideo (native) -> h264 (libx264))
Press [q] to stop, [?] for help
[libx264 @ 0x55b9f6d8bd40] using cpu capabilities: MMX2 SSE2Fast SSSE3 SSE4.2 AVX FMA3 BMI2 AVX2
[libx264 @ 0x55b9f6d8bd40] profile High, level 3.2, 4:2:0, 8-bit
[libx264 @ 0x55b9f6d8bd40] 264 - core 164 r3108 31e19f9 - H.264/MPEG-4 AVC codec - Copyleft 2003-2023 - http://www.videolan.org/x264.html - options: cabac=1 ref=1 deblock=1:0:0 analyse=0x3:0x113 me=hex subme=2 psy=1 psy_rd=1.00:0.00 mixed_ref=0 me_range=16 chroma_me=1 trellis=0 8x8dct=1 cqm=0 deadzone=21,11 fast_pskip=1 chroma_qp_offset=0 threads=3 lookahead_threads=1 sliced_threads=0 nr=0 decimate=1 interlaced=0 bluray_compat=0 constrained_intra=0 bframes=3 b_pyramid=2 b_adapt=1 b_bias=0 direct=1 weightb=1 open_gop=0 weightp=1 keyint=250 keyint_min=25 scenecut=40 intra_refresh=0 rc_lookahead=10 rc=crf mbtree=1 crf=23.0 qcomp=0.60 qpmin=0 qpmax=69 qpstep=4 ip_ratio=1.40 aq=1:1.00
Output #0, mp4, to '/home/runner/work/Auto_Browser/Auto_Browser/recordings/oncc/latest.mp4':
  Metadata:
    encoder         : Lavf60.16.100
  Stream #0:0: Video: h264 (avc1 / 0x31637661), yuv420p(tv, progressive), 1366x900, q=2-31, 25 fps, 12800 tbn
    Metadata:
      encoder         : Lavc60.31.102 libx264
    Side data:
      cpb: bitrate max/min/avg: 0/0/0 buffer size: 0 vbv_delay: N/A
frame=    0 fps=0.0 q=0.0 size=       0kB time=N/A bitrate=N/A speed=N/A    frame=    0 fps=0.0 q=0.0 size=       0kB time=N/A bitrate=N/A speed=N/A    frame=   11 fps= 11 q=28.0 size=       0kB time=00:00:00.36 bitrate=   1.1kbits/s speed=0.345x    frame=   25 fps= 16 q=28.0 size=       0kB time=00:00:00.88 bitrate=   0.4kbits/s speed=0.563x    frame=   37 fps= 18 q=28.0 size=       0kB time=00:00:01.40 bitrate=   0.3kbits/s speed=0.673x    frame=   51 fps= 20 q=28.0 size=       0kB time=00:00:01.92 bitrate=   0.2kbits/s speed=0.738x    frame=   63 fps= 20 q=28.0 size=       0kB time=00:00:02.44 bitrate=   0.2kbits/s speed=0.782x    frame=   76 fps= 21 q=28.0 size=     256kB time=00:00:02.96 bitrate= 708.6kbits/s speed=0.813x    frame=   90 fps= 22 q=28.0 size=     256kB time=00:00:03.48 bitrate= 602.7kbits/s speed=0.836x    frame=  102 fps= 22 q=28.0 size=     256kB time=00:00:04.00 bitrate= 524.4kbits/s speed=0.855x    frame=  115 fps= 22 q=28.0 size=     256kB time=00:00:04.52 bitrate= 464.1kbits/s speed=0.869x    frame=  128 fps= 22 q=28.0 size=     256kB time=00:00:05.04 bitrate= 416.2kbits/s speed=0.881x    frame=  142 fps= 23 q=28.0 size=     256kB time=00:00:05.56 bitrate= 377.3kbits/s speed=0.891x    frame=  154 fps= 23 q=28.0 size=     256kB time=00:00:06.08 bitrate= 345.0kbits/s speed=0.899x    frame=  167 fps= 23 q=28.0 size=     256kB time=00:00:06.60 bitrate= 317.8kbits/s speed=0.907x    frame=  181 fps= 23 q=28.0 size=     512kB time=00:00:07.12 bitrate= 589.1kbits/s speed=0.913x    frame=  193 fps= 23 q=28.0 size=     512kB time=00:00:07.64 bitrate= 549.0kbits/s speed=0.918x    frame=  206 fps= 23 q=28.0 size=     512kB time=00:00:08.16 bitrate= 514.1kbits/s speed=0.923x    frame=  219 fps= 23 q=28.0 size=     512kB time=00:00:08.68 bitrate= 483.3kbits/s speed=0.927x    frame=  233 fps= 24 q=28.0 size=     512kB time=00:00:09.20 bitrate= 455.9kbits/s speed=0.931x    frame=  245 fps= 24 q=28.0 size=     512kB time=00:00:09.72 bitrate= 431.6kbits/s speed=0.934x    frame=  258 fps= 24 q=28.0 size=     768kB time=00:00:10.24 bitrate= 614.4kbits/s speed=0.938x    frame=  272 fps= 24 q=28.0 size=     768kB time=00:00:10.76 bitrate= 584.7kbits/s speed=0.94x    frame=  284 fps= 24 q=28.0 size=     768kB time=00:00:11.28 bitrate= 557.8kbits/s speed=0.943x    frame=  298 fps= 24 q=28.0 size=     768kB time=00:00:11.80 bitrate= 533.2kbits/s speed=0.946x    frame=  310 fps= 24 q=28.0 size=     768kB time=00:00:12.32 bitrate= 510.7kbits/s speed=0.948x    frame=  323 fps= 24 q=28.0 size=     768kB time=00:00:12.84 bitrate= 490.0kbits/s speed=0.95x    frame=  336 fps= 24 q=28.0 size=     768kB time=00:00:13.36 bitrate= 470.9kbits/s speed=0.951x    frame=  349 fps= 24 q=28.0 size=     768kB time=00:00:13.88 bitrate= 453.3kbits/s speed=0.953x    frame=  363 fps= 24 q=28.0 size=     768kB time=00:00:14.40 bitrate= 436.9kbits/s speed=0.955x    frame=  375 fps= 24 q=28.0 size=     768kB time=00:00:14.92 bitrate= 421.7kbits/s speed=0.956x    frame=  389 fps= 24 q=28.0 size=     768kB time=00:00:15.44 bitrate= 407.5kbits/s speed=0.958x    frame=  401 fps= 24 q=28.0 size=     768kB time=00:00:15.96 bitrate= 394.2kbits/s speed=0.959x    frame=  414 fps= 24 q=28.0 size=     768kB time=00:00:16.48 bitrate= 381.8kbits/s speed=0.96x    frame=  428 fps= 24 q=28.0 size=     768kB time=00:00:17.00 bitrate= 370.1kbits/s speed=0.962x    frame=  440 fps= 24 q=28.0 size=     768kB time=00:00:17.52 bitrate= 359.1kbits/s speed=0.963x    frame=  454 fps= 24 q=28.0 size=    1024kB time=00:00:18.04 bitrate= 465.0kbits/s speed=0.964x    frame=  467 fps= 24 q=28.0 size=    1024kB time=00:00:18.56 bitrate= 452.0kbits/s speed=0.965x    frame=  480 fps= 24 q=28.0 size=    1024kB time=00:00:19.08 bitrate= 439.7kbits/s speed=0.966x    frame=  493 fps= 24 q=28.0 size=    1024kB time=00:00:19.60 bitrate= 428.0kbits/s speed=0.966x    frame=  505 fps= 24 q=28.0 size=    1024kB time=00:00:20.12 bitrate= 416.9kbits/s speed=0.967x    frame=  518 fps= 24 q=28.0 size=    1024kB time=00:00:20.64 bitrate= 406.4kbits/s speed=0.968x    frame=  532 fps= 24 q=28.0 size=    1024kB time=00:00:21.16 bitrate= 396.5kbits/s speed=0.969x    frame=  545 fps= 24 q=28.0 size=    1280kB time=00:00:21.68 bitrate= 483.7kbits/s speed=0.97x    frame=  557 fps= 24 q=28.0 size=    1280kB time=00:00:22.20 bitrate= 472.3kbits/s speed=0.97x    frame=  570 fps= 24 q=28.0 size=    1280kB time=00:00:22.72 bitrate= 461.5kbits/s speed=0.971x    frame=  584 fps= 24 q=28.0 size=    1280kB time=00:00:23.24 bitrate= 451.2kbits/s speed=0.972x    frame=  597 fps= 24 q=28.0 size=    1280kB time=00:00:23.76 bitrate= 441.3kbits/s speed=0.972x    frame=  609 fps= 24 q=28.0 size=    1280kB time=00:00:24.28 bitrate= 431.9kbits/s speed=0.973x    frame=  622 fps= 24 q=28.0 size=    1280kB time=00:00:24.80 bitrate= 422.8kbits/s speed=0.973x    frame=  635 fps= 24 q=28.0 size=    1280kB time=00:00:25.32 bitrate= 414.1kbits/s speed=0.974x    frame=  648 fps= 24 q=28.0 size=    1280kB time=00:00:25.84 bitrate= 405.8kbits/s speed=0.974x    frame=  662 fps= 24 q=28.0 size=    1280kB time=00:00:26.36 bitrate= 397.8kbits/s speed=0.975x    frame=  675 fps= 24 q=28.0 size=    1280kB time=00:00:26.88 bitrate= 390.1kbits/s speed=0.975x    frame=  687 fps= 24 q=28.0 size=    1280kB time=00:00:27.40 bitrate= 382.7kbits/s speed=0.976x    frame=  700 fps= 24 q=28.0 size=    1536kB time=00:00:27.92 bitrate= 450.7kbits/s speed=0.976x    frame=  713 fps= 24 q=28.0 size=    1536kB time=00:00:28.44 bitrate= 442.5kbits/s speed=0.977x    frame=  726 fps= 24 q=28.0 size=    1536kB time=00:00:28.96 bitrate= 434.5kbits/s speed=0.977x    frame=  740 fps= 25 q=28.0 size=    1536kB time=00:00:29.48 bitrate= 426.8kbits/s speed=0.977x    frame=  752 fps= 25 q=28.0 size=    1536kB time=00:00:30.00 bitrate= 419.4kbits/s speed=0.978x    frame=  765 fps= 25 q=28.0 size=    1536kB time=00:00:30.52 bitrate= 412.3kbits/s speed=0.978x    frame=  778 fps= 25 q=28.0 size=    1536kB time=00:00:31.04 bitrate= 405.4kbits/s speed=0.979x    frame=  792 fps= 25 q=28.0 size=    1536kB time=00:00:31.56 bitrate= 398.7kbits/s speed=0.979x    frame=  804 fps= 25 q=28.0 size=    1792kB time=00:00:32.08 bitrate= 457.6kbits/s speed=0.979x    frame=  817 fps= 25 q=28.0 size=    1792kB time=00:00:32.60 bitrate= 450.3kbits/s speed=0.98x    frame=  830 fps= 25 q=28.0 size=    1792kB time=00:00:33.12 bitrate= 443.3kbits/s speed=0.98x    frame=  843 fps= 25 q=28.0 size=    1792kB time=00:00:33.64 bitrate= 436.4kbits/s speed=0.98x    frame=  857 fps= 25 q=28.0 size=    1792kB time=00:00:34.16 bitrate= 429.8kbits/s speed=0.98x    frame=  870 fps= 25 q=28.0 size=    1792kB time=00:00:34.68 bitrate= 423.3kbits/s speed=0.981x    frame=  883 fps= 25 q=28.0 size=    1792kB time=00:00:35.20 bitrate= 417.1kbits/s speed=0.981x    frame=  896 fps= 25 q=28.0 size=    1792kB time=00:00:35.72 bitrate= 411.0kbits/s speed=0.981x    frame=  909 fps= 25 q=28.0 size=    1792kB time=00:00:36.24 bitrate= 405.1kbits/s speed=0.982x    frame=  921 fps= 25 q=28.0 size=    1792kB time=00:00:36.76 bitrate= 399.4kbits/s speed=0.982x    frame=  935 fps= 25 q=28.0 size=    1792kB time=00:00:37.28 bitrate= 393.8kbits/s speed=0.982x    frame=  947 fps= 25 q=28.0 size=    1792kB time=00:00:37.80 bitrate= 388.4kbits/s speed=0.982x    frame=  960 fps= 25 q=28.0 size=    1792kB time=00:00:38.32 bitrate= 383.1kbits/s speed=0.983x    frame=  973 fps= 25 q=28.0 size=    1792kB time=00:00:38.84 bitrate= 378.0kbits/s speed=0.983x    frame=  986 fps= 25 q=28.0 size=    1792kB time=00:00:39.36 bitrate= 373.0kbits/s speed=0.983x    frame=  999 fps= 25 q=28.0 size=    1792kB time=00:00:39.88 bitrate= 368.1kbits/s speed=0.983x    frame= 1012 fps= 25 q=28.0 size=    2048kB time=00:00:40.40 bitrate= 415.3kbits/s speed=0.983x    frame= 1025 fps= 25 q=28.0 size=    2048kB time=00:00:40.92 bitrate= 410.0kbits/s speed=0.984x    frame= 1038 fps= 25 q=28.0 size=    2048kB time=00:00:41.44 bitrate= 404.9kbits/s speed=0.984x    frame= 1051 fps= 25 q=28.0 size=    2048kB time=00:00:41.96 bitrate= 399.8kbits/s speed=0.984x    frame= 1064 fps= 25 q=28.0 size=    2048kB time=00:00:42.48 bitrate= 395.0kbits/s speed=0.984x    frame= 1078 fps= 25 q=28.0 size=    2048kB time=00:00:43.00 bitrate= 390.2kbits/s speed=0.984x    frame= 1090 fps= 25 q=28.0 size=    2048kB time=00:00:43.52 bitrate= 385.5kbits/s speed=0.985x    frame= 1103 fps= 25 q=28.0 size=    2304kB time=00:00:44.04 bitrate= 428.6kbits/s speed=0.985x    frame= 1116 fps= 25 q=28.0 size=    2304kB time=00:00:44.56 bitrate= 423.6kbits/s speed=0.985x    frame= 1129 fps= 25 q=28.0 size=    2304kB time=00:00:45.08 bitrate= 418.7kbits/s speed=0.985x    frame= 1143 fps= 25 q=28.0 size=    2304kB time=00:00:45.60 bitrate= 413.9kbits/s speed=0.985x    frame= 1155 fps= 25 q=28.0 size=    2304kB time=00:00:46.12 bitrate= 409.3kbits/s speed=0.985x    frame= 1169 fps= 25 q=28.0 size=    2304kB time=00:00:46.64 bitrate= 404.7kbits/s speed=0.986x    frame= 1182 fps= 25 q=28.0 size=    2304kB time=00:00:47.16 bitrate= 400.2kbits/s speed=0.986x    frame= 1194 fps= 25 q=28.0 size=    2304kB time=00:00:47.68 bitrate= 395.9kbits/s speed=0.986x    frame= 1208 fps= 25 q=28.0 size=    2560kB time=00:00:48.20 bitrate= 435.1kbits/s speed=0.986x    frame= 1220 fps= 25 q=28.0 size=    2560kB time=00:00:48.72 bitrate= 430.5kbits/s speed=0.986x    frame= 1233 fps= 25 q=28.0 size=    2560kB time=00:00:49.24 bitrate= 425.9kbits/s speed=0.986x    frame= 1246 fps= 25 q=28.0 size=    2560kB time=00:00:49.76 bitrate= 421.5kbits/s speed=0.986x    frame= 1260 fps= 25 q=28.0 size=    2816kB time=00:00:50.28 bitrate= 458.8kbits/s speed=0.987x    frame= 1273 fps= 25 q=28.0 size=    2816kB time=00:00:50.80 bitrate= 454.1kbits/s speed=0.987x    frame= 1286 fps= 25 q=28.0 size=    3072kB time=00:00:51.32 bitrate= 490.4kbits/s speed=0.987x    frame= 1298 fps= 25 q=28.0 size=    3072kB time=00:00:51.84 bitrate= 485.5kbits/s speed=0.987x    frame= 1311 fps= 25 q=28.0 size=    3072kB time=00:00:52.36 bitrate= 480.6kbits/s speed=0.987x    frame= 1324 fps= 25 q=28.0 size=    3328kB time=00:00:52.88 bitrate= 515.6kbits/s speed=0.987x    frame= 1337 fps= 25 q=28.0 size=    3328kB time=00:00:53.40 bitrate= 510.5kbits/s speed=0.987x    frame= 1350 fps= 25 q=28.0 size=    3328kB time=00:00:53.92 bitrate= 505.6kbits/s speed=0.988x    frame= 1363 fps= 25 q=28.0 size=    3328kB time=00:00:54.44 bitrate= 500.8kbits/s speed=0.988x    frame= 1376 fps= 25 q=28.0 size=    3328kB time=00:00:54.96 bitrate= 496.1kbits/s speed=0.988x    frame= 1390 fps= 25 q=28.0 size=    3328kB time=00:00:55.48 bitrate= 491.4kbits/s speed=0.988x    frame= 1403 fps= 25 q=28.0 size=    3584kB time=00:00:56.00 bitrate= 524.3kbits/s speed=0.988x    frame= 1416 fps= 25 q=28.0 size=    3584kB time=00:00:56.52 bitrate= 519.5kbits/s speed=0.988x    frame= 1429 fps= 25 q=28.0 size=    3584kB time=00:00:57.04 bitrate= 514.7kbits/s speed=0.988x    frame= 1441 fps= 25 q=28.0 size=    3584kB time=00:00:57.56 bitrate= 510.1kbits/s speed=0.988x    frame= 1454 fps= 25 q=28.0 size=    3584kB time=00:00:58.08 bitrate= 505.5kbits/s speed=0.988x    frame= 1468 fps= 25 q=28.0 size=    3584kB time=00:00:58.60 bitrate= 501.0kbits/s speed=0.989x    frame= 1480 fps= 25 q=28.0 size=    3584kB time=00:00:59.12 bitrate= 496.6kbits/s speed=0.989x    frame= 1493 fps= 25 q=28.0 size=    3840kB time=00:00:59.64 bitrate= 527.5kbits/s speed=0.989x    frame= 1506 fps= 25 q=28.0 size=    3840kB time=00:01:00.16 bitrate= 522.9kbits/s speed=0.989x    frame= 1519 fps= 25 q=28.0 size=    3840kB time=00:01:00.68 bitrate= 518.4kbits/s speed=0.989x    frame= 1532 fps= 25 q=28.0 size=    3840kB time=00:01:01.20 bitrate= 514.0kbits/s speed=0.989x    frame= 1545 fps= 25 q=28.0 size=    3840kB time=00:01:01.72 bitrate= 509.7kbits/s speed=0.989x    frame= 1558 fps= 25 q=28.0 size=    3840kB time=00:01:02.24 bitrate= 505.4kbits/s speed=0.989x    frame= 1571 fps= 25 q=28.0 size=    4096kB time=00:01:02.76 bitrate= 534.7kbits/s speed=0.989x    frame= 1584 fps= 25 q=28.0 size=    4096kB time=00:01:03.28 bitrate= 530.3kbits/s speed=0.989x    frame= 1597 fps= 25 q=28.0 size=    4096kB time=00:01:03.80 bitrate= 525.9kbits/s speed=0.989x    frame= 1611 fps= 25 q=28.0 size=    4096kB time=00:01:04.32 bitrate= 521.7kbits/s speed=0.99x    frame= 1624 fps= 25 q=28.0 size=    4096kB time=00:01:04.84 bitrate= 517.5kbits/s speed=0.99x    frame= 1637 fps= 25 q=28.0 size=    4096kB time=00:01:05.36 bitrate= 513.4kbits/s speed=0.99x    frame= 1649 fps= 25 q=28.0 size=    4096kB time=00:01:05.88 bitrate= 509.3kbits/s speed=0.99x    frame= 1663 fps= 25 q=28.0 size=    4096kB time=00:01:06.40 bitrate= 505.3kbits/s speed=0.99x    frame= 1675 fps= 25 q=28.0 size=    4352kB time=00:01:06.92 bitrate= 532.8kbits/s speed=0.99x    frame= 1689 fps= 25 q=28.0 size=    4352kB time=00:01:07.44 bitrate= 528.6kbits/s speed=0.99x    frame= 1701 fps= 25 q=28.0 size=    4352kB time=00:01:07.96 bitrate= 524.6kbits/s speed=0.99x    frame= 1715 fps= 25 q=28.0 size=    4352kB time=00:01:08.48 bitrate= 520.6kbits/s speed=0.99x    frame= 1728 fps= 25 q=28.0 size=    4352kB time=00:01:09.00 bitrate= 516.7kbits/s speed=0.99x    frame= 1740 fps= 25 q=28.0 size=    4352kB time=00:01:09.52 bitrate= 512.8kbits/s speed=0.99x    frame= 1754 fps= 25 q=28.0 size=    4352kB time=00:01:10.04 bitrate= 509.0kbits/s speed=0.99x    frame= 1766 fps= 25 q=28.0 size=    4608kB time=00:01:10.56 bitrate= 535.0kbits/s speed=0.99x    frame= 1779 fps= 25 q=28.0 size=    4608kB time=00:01:11.08 bitrate= 531.1kbits/s speed=0.991x    frame= 1792 fps= 25 q=28.0 size=    4608kB time=00:01:11.60 bitrate= 527.2kbits/s speed=0.991x    frame= 1806 fps= 25 q=28.0 size=    4608kB time=00:01:12.12 bitrate= 523.4kbits/s speed=0.991x    frame= 1818 fps= 25 q=28.0 size=    4608kB time=00:01:12.64 bitrate= 519.7kbits/s speed=0.991x    frame= 1832 fps= 25 q=28.0 size=    4608kB time=00:01:13.16 bitrate= 516.0kbits/s speed=0.991x    frame= 1845 fps= 25 q=28.0 size=    4608kB time=00:01:13.68 bitrate= 512.3kbits/s speed=0.991x    frame= 1857 fps= 25 q=28.0 size=    4608kB time=00:01:14.20 bitrate= 508.7kbits/s speed=0.991x    frame= 1871 fps= 25 q=28.0 size=    4608kB time=00:01:14.72 bitrate= 505.2kbits/s speed=0.991x    frame= 1883 fps= 25 q=28.0 size=    4608kB time=00:01:15.24 bitrate= 501.7kbits/s speed=0.991x    frame= 1896 fps= 25 q=28.0 size=    4864kB time=00:01:15.76 bitrate= 526.0kbits/s speed=0.991x    frame= 1909 fps= 25 q=28.0 size=    4864kB time=00:01:16.28 bitrate= 522.4kbits/s speed=0.991x    frame= 1922 fps= 25 q=28.0 size=    4864kB time=00:01:16.80 bitrate= 518.8kbits/s speed=0.991x    frame= 1935 fps= 25 q=28.0 size=    4864kB time=00:01:17.32 bitrate= 515.3kbits/s speed=0.991x    frame= 1948 fps= 25 q=28.0 size=    4864kB time=00:01:17.84 bitrate= 511.9kbits/s speed=0.991x    frame= 1961 fps= 25 q=28.0 size=    4864kB time=00:01:18.36 bitrate= 508.5kbits/s speed=0.991x    frame= 1974 fps= 25 q=28.0 size=    4864kB time=00:01:18.88 bitrate= 505.2kbits/s speed=0.991x    frame= 1987 fps= 25 q=28.0 size=    4864kB time=00:01:19.40 bitrate= 501.8kbits/s speed=0.991x    frame= 2000 fps= 25 q=28.0 size=    5120kB time=00:01:19.92 bitrate= 524.8kbits/s speed=0.992x    frame= 2013 fps= 25 q=28.0 size=    5120kB time=00:01:20.44 bitrate= 521.4kbits/s speed=0.992x    frame= 2027 fps= 25 q=28.0 size=    5120kB time=00:01:20.96 bitrate= 518.1kbits/s speed=0.992x    frame= 2039 fps= 25 q=28.0 size=    5120kB time=00:01:21.48 bitrate= 514.8kbits/s speed=0.992x    frame= 2052 fps= 25 q=28.0 size=    5376kB time=00:01:22.00 bitrate= 537.1kbits/s speed=0.992x    frame= 2065 fps= 25 q=28.0 size=    5376kB time=00:01:22.52 bitrate= 533.7kbits/s speed=0.992x    frame= 2078 fps= 25 q=28.0 size=    5376kB time=00:01:23.04 bitrate= 530.4kbits/s speed=0.992x    frame= 2091 fps= 25 q=28.0 size=    5376kB time=00:01:23.56 bitrate= 527.1kbits/s speed=0.992x    frame= 2105 fps= 25 q=28.0 size=    5376kB time=00:01:24.08 bitrate= 523.8kbits/s speed=0.992x    frame= 2117 fps= 25 q=28.0 size=    5632kB time=00:01:24.60 bitrate= 545.4kbits/s speed=0.992x    frame= 2130 fps= 25 q=28.0 size=    5632kB time=00:01:25.12 bitrate= 542.0kbits/s speed=0.992x    frame= 2144 fps= 25 q=28.0 size=    5632kB time=00:01:25.64 bitrate= 538.7kbits/s speed=0.992x    frame= 2157 fps= 25 q=28.0 size=    5632kB time=00:01:26.16 bitrate= 535.5kbits/s speed=0.992x    frame= 2169 fps= 25 q=28.0 size=    5632kB time=00:01:26.68 bitrate= 532.3kbits/s speed=0.992x    frame= 2183 fps= 25 q=28.0 size=    5632kB time=00:01:27.20 bitrate= 529.1kbits/s speed=0.992x    frame= 2195 fps= 25 q=28.0 size=    5632kB time=00:01:27.72 bitrate= 526.0kbits/s speed=0.992x    frame= 2209 fps= 25 q=28.0 size=    5632kB time=00:01:28.24 bitrate= 522.9kbits/s speed=0.992x    frame= 2222 fps= 25 q=28.0 size=    5632kB time=00:01:28.76 bitrate= 519.8kbits/s speed=0.992x    frame= 2234 fps= 25 q=28.0 size=    5632kB time=00:01:29.28 bitrate= 516.8kbits/s speed=0.992x    frame= 2248 fps= 25 q=28.0 size=    5632kB time=00:01:29.80 bitrate= 513.8kbits/s speed=0.992x    frame= 2261 fps= 25 q=28.0 size=    5888kB time=00:01:30.32 bitrate= 534.0kbits/s speed=0.993x    frame= 2274 fps= 25 q=28.0 size=    5888kB time=00:01:30.84 bitrate= 531.0kbits/s speed=0.993x    frame= 2287 fps= 25 q=28.0 size=    5888kB time=00:01:31.36 bitrate= 528.0kbits/s speed=0.993x    frame= 2299 fps= 25 q=28.0 size=    5888kB time=00:01:31.88 bitrate= 525.0kbits/s speed=0.993x    frame= 2313 fps= 25 q=28.0 size=    5888kB time=00:01:32.40 bitrate= 522.0kbits/s speed=0.993x    frame= 2325 fps= 25 q=28.0 size=    5888kB time=00:01:32.92 bitrate= 519.1kbits/s speed=0.993x    frame= 2339 fps= 25 q=28.0 size=    5888kB time=00:01:33.44 bitrate= 516.2kbits/s speed=0.993x    frame= 2351 fps= 25 q=28.0 size=    5888kB time=00:01:33.96 bitrate= 513.4kbits/s speed=0.993x    frame= 2364 fps= 25 q=28.0 size=    5888kB time=00:01:34.48 bitrate= 510.5kbits/s speed=0.993x    frame= 2377 fps= 25 q=28.0 size=    5888kB time=00:01:35.00 bitrate= 507.7kbits/s speed=0.993x    frame= 2390 fps= 25 q=28.0 size=    6144kB time=00:01:35.52 bitrate= 526.9kbits/s speed=0.993x    frame= 2404 fps= 25 q=28.0 size=    6144kB time=00:01:36.04 bitrate= 524.1kbits/s speed=0.993x    frame= 2416 fps= 25 q=28.0 size=    6144kB time=00:01:36.56 bitrate= 521.3kbits/s speed=0.993x    frame= 2430 fps= 25 q=28.0 size=    6144kB time=00:01:37.08 bitrate= 518.5kbits/s speed=0.993x    frame= 2443 fps= 25 q=28.0 size=    6144kB time=00:01:37.60 bitrate= 515.7kbits/s speed=0.993x    frame= 2455 fps= 25 q=28.0 size=    6144kB time=00:01:38.12 bitrate= 513.0kbits/s speed=0.993x    frame= 2469 fps= 25 q=28.0 size=    6144kB time=00:01:38.64 bitrate= 510.3kbits/s speed=0.993x    frame= 2482 fps= 25 q=28.0 size=    6144kB time=00:01:39.16 bitrate= 507.6kbits/s speed=0.993x    frame= 2494 fps= 25 q=28.0 size=    6400kB time=00:01:39.68 bitrate= 526.0kbits/s speed=0.993x    frame= 2507 fps= 25 q=28.0 size=    6400kB time=00:01:40.20 bitrate= 523.2kbits/s speed=0.993x    frame= 2520 fps= 25 q=28.0 size=    6400kB time=00:01:40.72 bitrate= 520.5kbits/s speed=0.993x    frame= 2533 fps= 25 q=28.0 size=    6656kB time=00:01:41.24 bitrate= 538.6kbits/s speed=0.993x    frame= 2546 fps= 25 q=28.0 size=    6656kB time=00:01:41.76 bitrate= 535.8kbits/s speed=0.993x    frame= 2560 fps= 25 q=28.0 size=    6656kB time=00:01:42.28 bitrate= 533.1kbits/s speed=0.993x    frame= 2572 fps= 25 q=28.0 size=    6656kB time=00:01:42.80 bitrate= 530.4kbits/s speed=0.993x    frame= 2586 fps= 25 q=28.0 size=    6912kB time=00:01:43.32 bitrate= 548.0kbits/s speed=0.993x    frame= 2599 fps= 25 q=28.0 size=    6912kB time=00:01:43.84 bitrate= 545.3kbits/s speed=0.993x    frame= 2612 fps= 25 q=28.0 size=    6912kB time=00:01:44.36 bitrate= 542.6kbits/s speed=0.994x    frame= 2625 fps= 25 q=28.0 size=    6912kB time=00:01:44.88 bitrate= 539.9kbits/s speed=0.994x    frame= 2637 fps= 25 q=28.0 size=    7168kB time=00:01:45.40 bitrate= 557.1kbits/s speed=0.994x    frame= 2650 fps= 25 q=28.0 size=    7168kB time=00:01:45.92 bitrate= 554.4kbits/s speed=0.994x    frame= 2664 fps= 25 q=28.0 size=    7168kB time=00:01:46.44 bitrate= 551.7kbits/s speed=0.994x    frame= 2677 fps= 25 q=28.0 size=    7168kB time=00:01:46.96 bitrate= 549.0kbits/s speed=0.994x    frame= 2689 fps= 25 q=28.0 size=    7424kB time=00:01:47.48 bitrate= 565.9kbits/s speed=0.994x    frame= 2703 fps= 25 q=28.0 size=    7424kB time=00:01:48.00 bitrate= 563.1kbits/s speed=0.994x    frame= 2715 fps= 25 q=28.0 size=    7424kB time=00:01:48.52 bitrate= 560.4kbits/s speed=0.994x    frame= 2728 fps= 25 q=28.0 size=    7424kB time=00:01:49.04 bitrate= 557.8kbits/s speed=0.994x    frame= 2741 fps= 25 q=28.0 size=    7424kB time=00:01:49.56 bitrate= 555.1kbits/s speed=0.994x    frame= 2755 fps= 25 q=28.0 size=    7680kB time=00:01:50.08 bitrate= 571.5kbits/s speed=0.994x    frame= 2767 fps= 25 q=28.0 size=    7680kB time=00:01:50.60 bitrate= 568.9kbits/s speed=0.994x    frame= 2781 fps= 25 q=28.0 size=    7680kB time=00:01:51.12 bitrate= 566.2kbits/s speed=0.994x    frame= 2794 fps= 25 q=28.0 size=    7680kB time=00:01:51.64 bitrate= 563.6kbits/s speed=0.994x    frame= 2807 fps= 25 q=28.0 size=    7680kB time=00:01:52.16 bitrate= 560.9kbits/s speed=0.994x    frame= 2820 fps= 25 q=28.0 size=    7936kB time=00:01:52.68 bitrate= 577.0kbits/s speed=0.994x    frame= 2833 fps= 25 q=28.0 size=    7936kB time=00:01:53.20 bitrate= 574.3kbits/s speed=0.994x    frame= 2845 fps= 25 q=28.0 size=    7936kB time=00:01:53.72 bitrate= 571.7kbits/s speed=0.994x    frame= 2858 fps= 25 q=28.0 size=    7936kB time=00:01:54.24 bitrate= 569.1kbits/s speed=0.994x    frame= 2872 fps= 25 q=28.0 size=    7936kB time=00:01:54.76 bitrate= 566.5kbits/s speed=0.994x    frame= 2884 fps= 25 q=28.0 size=    7936kB time=00:01:55.28 bitrate= 563.9kbits/s speed=0.994x    frame= 2897 fps= 25 q=28.0 size=    7936kB time=00:01:55.80 bitrate= 561.4kbits/s speed=0.994x    frame= 2910 fps= 25 q=28.0 size=    7936kB time=00:01:56.32 bitrate= 558.9kbits/s speed=0.994x    frame= 2923 fps= 25 q=28.0 size=    7936kB time=00:01:56.84 bitrate= 556.4kbits/s speed=0.994x    frame= 2937 fps= 25 q=28.0 size=    7936kB time=00:01:57.36 bitrate= 554.0kbits/s speed=0.994x    frame= 2950 fps= 25 q=28.0 size=    7936kB time=00:01:57.88 bitrate= 551.5kbits/s speed=0.994x    frame= 2962 fps= 25 q=28.0 size=    8192kB time=00:01:58.40 bitrate= 566.8kbits/s speed=0.994x    frame= 2976 fps= 25 q=28.0 size=    8192kB time=00:01:58.92 bitrate= 564.3kbits/s speed=0.994x    frame= 2988 fps= 25 q=28.0 size=    8192kB time=00:01:59.44 bitrate= 561.9kbits/s speed=0.994x    frame= 3001 fps= 25 q=28.0 size=    8192kB time=00:01:59.96 bitrate= 559.4kbits/s speed=0.994x    frame= 3015 fps= 25 q=28.0 size=    8192kB time=00:02:00.48 bitrate= 557.0kbits/s speed=0.994x    frame= 3028 fps= 25 q=28.0 size=    8448kB time=00:02:01.00 bitrate= 572.0kbits/s speed=0.994x    frame= 3040 fps= 25 q=28.0 size=    8448kB time=00:02:01.52 bitrate= 569.5kbits/s speed=0.994x    frame= 3053 fps= 25 q=28.0 size=    8448kB time=00:02:02.04 bitrate= 567.1kbits/s speed=0.994x    frame= 3067 fps= 25 q=28.0 size=    8448kB time=00:02:02.56 bitrate= 564.7kbits/s speed=0.994x    frame= 3079 fps= 25 q=28.0 size=    8448kB time=00:02:03.08 bitrate= 562.3kbits/s speed=0.995x    frame= 3093 fps= 25 q=28.0 size=    8448kB time=00:02:03.60 bitrate= 559.9kbits/s speed=0.995x    frame= 3106 fps= 25 q=28.0 size=    8448kB time=00:02:04.12 bitrate= 557.6kbits/s speed=0.995x    frame= 3119 fps= 25 q=28.0 size=    8704kB time=00:02:04.64 bitrate= 572.1kbits/s speed=0.995x    frame= 3132 fps= 25 q=28.0 size=    8704kB time=00:02:05.16 bitrate= 569.7kbits/s speed=0.995x    frame= 3144 fps= 25 q=28.0 size=    8704kB time=00:02:05.68 bitrate= 567.3kbits/s speed=0.995x    frame= 3158 fps= 25 q=28.0 size=    8704kB time=00:02:06.20 bitrate= 565.0kbits/s speed=0.995x    frame= 3171 fps= 25 q=28.0 size=    8704kB time=00:02:06.72 bitrate= 562.7kbits/s speed=0.995x    frame= 3183 fps= 25 q=28.0 size=    8704kB time=00:02:07.24 bitrate= 560.4kbits/s speed=0.995x    frame= 3197 fps= 25 q=28.0 size=    8960kB time=00:02:07.76 bitrate= 574.5kbits/s speed=0.995x    frame= 3210 fps= 25 q=28.0 size=    8960kB time=00:02:08.28 bitrate= 572.2kbits/s speed=0.995x    frame= 3223 fps= 25 q=28.0 size=    8960kB time=00:02:08.80 bitrate= 569.9kbits/s speed=0.995x    frame= 3236 fps= 25 q=28.0 size=    8960kB time=00:02:09.32 bitrate= 567.6kbits/s speed=0.995x    frame= 3248 fps= 25 q=25.0 size=    8960kB time=00:02:09.84 bitrate= 565.3kbits/s speed=0.995x    frame= 3261 fps= 25 q=28.0 size=    8960kB time=00:02:10.36 bitrate= 563.1kbits/s speed=0.995x    frame= 3274 fps= 25 q=28.0 size=    9216kB time=00:02:10.88 bitrate= 576.8kbits/s speed=0.995x    frame= 3287 fps= 25 q=28.0 size=    9216kB time=00:02:11.40 bitrate= 574.6kbits/s speed=0.995x    frame= 3301 fps= 25 q=28.0 size=    9216kB time=00:02:11.92 bitrate= 572.3kbits/s speed=0.995x    frame= 3314 fps= 25 q=28.0 size=    9216kB time=00:02:12.44 bitrate= 570.1kbits/s speed=0.995x    frame= 3326 fps= 25 q=28.0 size=    9216kB time=00:02:12.96 bitrate= 567.8kbits/s speed=0.995x    frame= 3340 fps= 25 q=28.0 size=    9216kB time=00:02:13.48 bitrate= 565.6kbits/s speed=0.995x    frame= 3352 fps= 25 q=28.0 size=    9472kB time=00:02:14.00 bitrate= 579.1kbits/s speed=0.995x    frame= 3365 fps= 25 q=28.0 size=    9472kB time=00:02:14.52 bitrate= 576.8kbits/s speed=0.995x    frame= 3379 fps= 25 q=28.0 size=    9472kB time=00:02:15.04 bitrate= 574.6kbits/s speed=0.995x    frame= 3391 fps= 25 q=28.0 size=    9472kB time=00:02:15.56 bitrate= 572.4kbits/s speed=0.995x    frame= 3404 fps= 25 q=28.0 size=    9472kB time=00:02:16.08 bitrate= 570.2kbits/s speed=0.995x    frame= 3417 fps= 25 q=28.0 size=    9472kB time=00:02:16.60 bitrate= 568.0kbits/s speed=0.995x    frame= 3431 fps= 25 q=28.0 size=    9472kB time=00:02:17.12 bitrate= 565.9kbits/s speed=0.995x    frame= 3444 fps= 25 q=28.0 size=    9728kB time=00:02:17.64 bitrate= 579.0kbits/s speed=0.995x    frame= 3457 fps= 25 q=28.0 size=    9728kB time=00:02:18.16 bitrate= 576.8kbits/s speed=0.995x    frame= 3469 fps= 25 q=28.0 size=    9728kB time=00:02:18.68 bitrate= 574.6kbits/s speed=0.995x    frame= 3483 fps= 25 q=28.0 size=    9984kB time=00:02:19.20 bitrate= 587.6kbits/s speed=0.995x    frame= 3495 fps= 25 q=28.0 size=    9984kB time=00:02:19.72 bitrate= 585.4kbits/s speed=0.995x    frame= 3509 fps= 25 q=28.0 size=   10240kB time=00:02:20.24 bitrate= 598.2kbits/s speed=0.995x    frame= 3521 fps= 25 q=28.0 size=   10240kB time=00:02:20.76 bitrate= 596.0kbits/s speed=0.995x    frame= 3535 fps= 25 q=28.0 size=   10496kB time=00:02:21.28 bitrate= 608.6kbits/s speed=0.995x    frame= 3547 fps= 25 q=28.0 size=   10496kB time=00:02:21.80 bitrate= 606.4kbits/s speed=0.995x    frame= 3561 fps= 25 q=28.0 size=   10496kB time=00:02:22.32 bitrate= 604.2kbits/s speed=0.995x    frame= 3574 fps= 25 q=28.0 size=   10752kB time=00:02:22.84 bitrate= 616.6kbits/s speed=0.995x    frame= 3587 fps= 25 q=28.0 size=   10752kB time=00:02:23.36 bitrate= 614.4kbits/s speed=0.995x    frame= 3599 fps= 25 q=28.0 size=   10752kB time=00:02:23.88 bitrate= 612.2kbits/s speed=0.995x    [mp4 @ 0x55b9f6d8b200] Starting second pass: moving the moov atom to the beginning of the file
[out#0/mp4 @ 0x55b9f6d8a580] video:10814kB audio:0kB subtitle:0kB other streams:0kB global headers:0kB muxing overhead: 0.395297%
frame= 3625 fps= 25 q=-1.0 Lsize=   10857kB time=00:02:24.88 bitrate= 613.9kbits/s speed=0.999x    
[libx264 @ 0x55b9f6d8bd40] frame I:15    Avg QP:14.28  size:104742
[libx264 @ 0x55b9f6d8bd40] frame P:1021  Avg QP:23.24  size:  6812
[libx264 @ 0x55b9f6d8bd40] frame B:2589  Avg QP:27.42  size:   984
[libx264 @ 0x55b9f6d8bd40] consecutive B-frames:  2.4%  5.2%  5.8% 86.6%
[libx264 @ 0x55b9f6d8bd40] mb I  I16..4: 62.6%  4.3% 33.1%
[libx264 @ 0x55b9f6d8bd40] mb P  I16..4:  1.3%  1.2%  0.8%  P16..4:  5.4%  2.7%  1.8%  0.0%  0.0%    skip:86.8%
[libx264 @ 0x55b9f6d8bd40] mb B  I16..4:  0.2%  0.1%  0.0%  B16..8:  2.1%  1.0%  0.1%  direct: 0.6%  skip:95.8%  L0:36.0% L1:43.1% BI:20.8%
[libx264 @ 0x55b9f6d8bd40] 8x8 transform intra:28.3% inter:23.3%
[libx264 @ 0x55b9f6d8bd40] coded y,uvDC,uvAC intra: 45.5% 34.5% 17.7% inter: 1.7% 1.0% 0.1%
[libx264 @ 0x55b9f6d8bd40] i16 v,h,dc,p: 54% 37%  5%  4%
[libx264 @ 0x55b9f6d8bd40] i8 v,h,dc,ddl,ddr,vr,hd,vl,hu: 17% 33% 15%  5%  6%  5%  7%  5%  7%
[libx264 @ 0x55b9f6d8bd40] i4 v,h,dc,ddl,ddr,vr,hd,vl,hu: 23% 28% 13%  5%  7%  6%  7%  5%  6%
[libx264 @ 0x55b9f6d8bd40] i8c dc,h,v,p: 57% 26% 14%  4%
[libx264 @ 0x55b9f6d8bd40] Weighted P-Frames: Y:0.0% UV:0.0%
[libx264 @ 0x55b9f6d8bd40] kb/s:610.94
